<svg width="121" height="32" viewBox="0 0 121 32" fill="none" xmlns="http://www.w3.org/2000/svg">
<g clip-path="url(#clip0_9254_715)">
<path d="M29.9356 24.1166C29.6536 22.9124 29.2955 21.9454 28.8567 21.2112C28.4225 20.4816 27.8898 19.922 27.2585 19.537C26.6318 19.152 25.8439 18.9102 24.8949 18.8073V18.382C25.9469 18.2029 26.8422 17.9209 27.5854 17.5359C28.3285 17.1509 28.9328 16.6719 29.3939 16.0944C29.855 15.5169 30.1952 14.8633 30.4146 14.1336C30.634 13.4039 30.7414 12.616 30.7414 11.7699C30.7414 10.7448 30.5981 9.82705 30.3161 9.02125C30.0341 8.21545 29.6222 7.52158 29.085 6.94408C28.5478 6.36658 27.9032 5.88757 27.1645 5.50259C26.4214 5.11758 25.5932 4.83554 24.6845 4.65649C23.7757 4.47744 22.8043 4.38789 21.7791 4.38789H17.9068V7.31117H21.5463C23.4937 7.31117 24.9217 7.72305 25.835 8.54228C26.7437 9.36151 27.2004 10.606 27.2004 12.2713C27.2004 14.0172 26.7124 15.302 25.7409 16.1347C24.765 16.9673 23.2788 17.3837 21.2777 17.3837H17.9068V20.1548H21.5463C22.5983 20.1548 23.4444 20.3293 24.0846 20.674C24.7248 21.0188 25.2396 21.5067 25.6246 22.1379C26.0095 22.7647 26.2916 23.5436 26.4707 24.4658L26.8556 26.1714C27.3302 28.2754 29.197 29.7751 31.3547 29.7751L29.9356 24.1166Z" fill="#F4B81D"/>
<path d="M6.89871 12.5578C6.91664 12.2445 6.93452 9.4645 6.95694 9.15559C7.00169 8.47066 7.042 7.78124 7.08226 7.0963C7.09569 6.87246 7.13599 6.65759 7.27029 6.47405C7.40459 6.27711 7.58814 6.17413 7.83436 6.17413C9.11018 6.17858 10.3905 6.17858 11.6664 6.17413C11.8857 6.17413 12.0514 6.27262 12.1812 6.43824C12.311 6.60835 12.3692 6.80533 12.3827 7.01125C12.4364 7.8618 12.4856 8.71239 12.5393 9.56743C12.5483 9.73754 12.5617 12.3788 12.5751 12.5578C10.677 12.5578 8.79234 12.5578 6.89871 12.5578ZM11.5724 8.11701C11.5724 7.09185 10.7486 6.27262 9.71006 6.27262C8.71627 6.27262 7.89255 7.10529 7.89255 8.11251C7.89255 9.11978 8.72072 9.95245 9.72799 9.9569C10.7397 9.95245 11.5724 9.12427 11.5724 8.11701Z" fill="#F6B81E"/>
<path d="M14.6298 0.60957C14.6298 0.797593 14.6298 0.963224 14.6298 1.13782C14.6208 1.13782 14.6119 1.14678 14.5984 1.14678C14.406 1.15126 14.3388 1.18259 14.2851 1.37061C14.1821 1.71979 14.0971 2.07344 14.0075 2.4271C13.9851 2.51663 13.9717 2.61512 13.9493 2.70465C13.9449 2.73151 13.9269 2.76284 13.9091 2.78523C13.6852 3.01802 13.6628 3.16577 13.8061 3.45228C13.8105 3.46123 13.815 3.47018 13.824 3.50151C13.7837 3.49256 13.7568 3.48359 13.73 3.48359C13.618 3.48359 13.5017 3.46568 13.3897 3.48807C13.2331 3.5194 13.1346 3.62686 13.0943 3.78355C13.0272 4.03871 12.9645 4.2894 12.8929 4.54012C12.7272 5.14 12.3377 5.52942 11.7513 5.7264C11.6931 5.74877 11.6304 5.7667 11.5722 5.78013C11.5722 5.64583 11.5677 5.51599 11.5767 5.38618C11.5767 5.35931 11.617 5.32799 11.6483 5.31456C11.9841 5.19818 12.2482 4.98777 12.3959 4.66543C12.4675 4.51321 12.5033 4.3431 12.5526 4.18195C12.6063 3.98945 12.6511 3.79248 12.7093 3.59998C12.8122 3.24185 13.0361 2.99118 13.3718 2.83449C13.4166 2.81211 13.439 2.78971 13.4434 2.73599C13.524 2.22565 13.6449 1.72426 13.8553 1.24973C13.9851 0.958749 14.2 0.761787 14.491 0.645393C14.5313 0.627487 14.5806 0.623 14.6298 0.60957Z" fill="#F6B81E"/>
<path d="M5.68568 3.412C5.69467 3.35828 5.7081 3.30457 5.71255 3.25085C5.72598 3.11655 5.69017 3.00014 5.59168 2.90166C5.56482 2.8748 5.55138 2.83899 5.54244 2.80318C5.44844 2.33313 5.3544 1.85859 5.25596 1.38854C5.24252 1.33034 5.2201 1.27216 5.20222 1.21397C5.17535 1.13339 5.12161 1.09309 5.03211 1.09309C4.97837 1.09309 4.92913 1.08412 4.862 1.07965C4.93362 0.945344 4.91569 0.820008 4.862 0.694659C5.19328 0.690184 5.44844 0.757342 5.58274 1.06623C5.74391 1.44227 5.83791 1.8407 5.91847 2.2436C5.95428 2.42267 5.98115 2.60619 6.01251 2.78526C6.02145 2.83003 6.03489 2.85689 6.07964 2.8748C6.45122 3.03596 6.69295 3.30455 6.78695 3.70745C6.84068 3.94471 6.9123 4.18199 6.97498 4.41925C7.09136 4.86691 7.37788 5.16237 7.80765 5.3146C7.87033 5.33698 7.8927 5.36384 7.8927 5.43097C7.88821 5.5429 7.8927 5.65927 7.8927 5.78463C7.79421 5.75331 7.68678 5.72195 7.5838 5.6772C7.06004 5.45784 6.71533 5.07732 6.56759 4.52669C6.50491 4.28496 6.43778 4.04321 6.37511 3.80147C6.31243 3.56421 6.15575 3.4344 5.90953 3.42097C5.83791 3.40754 5.76629 3.412 5.68568 3.412Z" fill="#F6B81E"/>
<path d="M15.6908 1.26763C15.5565 1.26763 15.4222 1.25868 15.2879 1.26763C14.9029 1.29449 14.6836 1.00796 14.8358 0.605061C14.9388 0.331985 15.1492 0.17083 15.4446 0.135017C15.6774 0.10368 15.9102 0.0723424 16.143 0.049959C16.3623 0.0275756 16.5369 0.14398 16.604 0.340954C16.622 0.394674 16.6265 0.448394 16.6265 0.506589C16.6309 0.600598 16.6265 0.694612 16.6265 0.788622C16.6265 1.07961 16.4474 1.26315 16.1519 1.26763C15.9997 1.26763 15.843 1.26763 15.6908 1.26763Z" fill="#F6B81E"/>
<path d="M3.82323 1.2183C3.6576 1.2183 3.49644 1.2183 3.3308 1.2183C3.07563 1.2183 2.8876 1.03028 2.8876 0.775114C2.8876 0.663195 2.8876 0.55128 2.8876 0.439361C2.89208 0.170762 3.11144 -0.0261985 3.38004 0.00513821C3.61283 0.0319982 3.84561 0.0588592 4.0784 0.0901961C4.46789 0.143916 4.74543 0.466234 4.7275 0.842273C4.71856 1.05268 4.55294 1.21382 4.34253 1.2183C4.33804 1.2183 4.33359 1.2183 4.32461 1.2183C4.15451 1.2183 3.98887 1.2183 3.82323 1.2183Z" fill="#F6B81E"/>
<path d="M9.7415 5.06371C10.1578 5.06371 10.5742 5.06371 10.986 5.06371C11.1159 5.06371 11.1427 5.09058 11.1427 5.22039C11.1427 5.35024 11.1427 5.4756 11.1427 5.6054C11.1427 5.70389 11.1069 5.7442 11.0084 5.7442C10.9009 5.74869 10.789 5.7442 10.6816 5.7442C9.95636 5.7442 9.22667 5.7442 8.50144 5.7442C8.34926 5.7442 8.32239 5.71733 8.32239 5.5651C8.32239 5.44873 8.32239 5.33231 8.32239 5.21594C8.32239 5.09952 8.3582 5.06821 8.47012 5.06821C8.8954 5.06371 9.31622 5.06371 9.7415 5.06371Z" fill="#F6B81E"/>
<path d="M4.48121 3.51471C4.21263 3.51471 3.93954 3.51471 3.67095 3.51471C3.46502 3.51471 3.31729 3.37594 3.31729 3.18344C3.31729 2.99094 3.46502 2.84321 3.67542 2.84321C4.2171 2.84321 4.76325 2.84321 5.30494 2.84321C5.50192 2.84321 5.6541 2.99542 5.64965 3.18344C5.64516 3.37146 5.49293 3.51471 5.30045 3.51471C5.02735 3.51471 4.75431 3.51471 4.48121 3.51471Z" fill="#F6B81E"/>
<path d="M14.961 3.51471C14.6924 3.51471 14.4238 3.50576 14.1597 3.51471C13.9358 3.52366 13.7926 3.3446 13.7926 3.18344C13.7926 2.98199 13.9403 2.84321 14.1552 2.84321C14.6924 2.84321 15.2296 2.84321 15.7668 2.84321C15.9728 2.84321 16.1205 2.98646 16.1249 3.17448C16.1249 3.37593 15.9772 3.51471 15.7623 3.51471C15.4982 3.51471 15.2296 3.51471 14.961 3.51471Z" fill="#F6B81E"/>
<path d="M9.72793 9.52247C8.94901 9.51798 8.31781 8.88229 8.31781 8.10781C8.32226 7.32888 8.96244 6.69319 9.73243 6.69769C10.5293 6.70214 11.147 7.33782 11.1426 8.14362C11.1426 8.89572 10.4979 9.52692 9.72793 9.52247Z" fill="#202020"/>
<path d="M3.44241 6.10696V11.8237C3.17381 12.0117 2.91417 12.2131 2.66347 12.428C2.43964 12.616 2.22028 12.8219 2.00988 13.0324C1.20408 13.8382 0.523629 14.7738 0.0043335 15.7855V6.10696C0.0043335 5.15788 0.774318 4.38789 1.72337 4.38789C2.67243 4.38789 3.44241 5.15788 3.44241 6.10696Z" fill="#202020"/>
<path d="M16.0714 6.10696V11.8237C16.34 12.0117 16.5996 12.2131 16.8503 12.428C17.0742 12.616 17.2935 12.8219 17.5039 13.0324C18.3097 13.8382 18.9902 14.7738 19.5094 15.7855V6.10696C19.5094 5.15788 18.7394 4.38789 17.7904 4.38789C16.8414 4.38789 16.0714 5.15788 16.0714 6.10696Z" fill="#F4B81D"/>
<path d="M18.9902 17.6208C18.5023 16.1972 17.6965 14.9214 16.6534 13.8828C16.4654 13.6948 16.2729 13.5157 16.0714 13.3456C14.3703 11.8996 12.1633 11.0267 9.75485 11.0267C7.3464 11.0267 5.13942 11.8996 3.43827 13.3456C3.23682 13.5157 3.04432 13.6948 2.8563 13.8828C1.81324 14.9259 1.00743 16.1972 0.523952 17.6208C0.183726 18.6102 0.000183105 19.6756 0.000183105 20.7769V29.8735C1.89829 29.8735 3.43827 28.3335 3.43827 26.4354V20.9918C3.43827 20.2755 3.55914 19.5861 3.77849 18.9459C4.09186 18.0237 4.61566 17.2 5.2916 16.524C6.43317 15.3825 8.01345 14.6752 9.75485 14.6752C11.5007 14.6752 13.0765 15.3825 14.2181 16.524C14.8896 17.1956 15.4134 18.0237 15.7312 18.9459C15.9506 19.5861 16.067 20.2755 16.067 20.9918V26.4354C16.067 27.3844 16.452 28.244 17.0742 28.8662C17.1458 28.9379 17.2175 29.005 17.2936 29.0677V27.3621H17.9114V29.484C18.3904 29.7347 18.932 29.8735 19.5051 29.8735V20.7769C19.5095 19.6711 19.326 18.6102 18.9902 17.6208ZM2.0326 27.9978H1.41481V25.276H2.0326V27.9978ZM2.0326 20.7769V23.1495H1.41481V20.4277L2.0326 20.4322V20.7769ZM3.42932 16.3763C3.03985 16.927 2.722 17.5268 2.49369 18.1625L2.38625 18.4535L1.80428 18.2431L1.91173 17.9521C2.16242 17.2672 2.50264 16.6181 2.92345 16.0227L3.10252 15.772L3.60838 16.1301L3.42932 16.3763ZM7.07331 13.5963C6.44211 13.8246 5.83775 14.138 5.28711 14.523L5.03195 14.702L4.67829 14.1962L4.93346 14.0171C5.53334 13.5963 6.18246 13.2606 6.86739 13.0143L7.15837 12.9114L7.36878 13.4934L7.07331 13.5963ZM11.9529 13.4889L11.653 13.4083C11.0083 13.2337 10.3368 13.1486 9.66531 13.1486H9.34746V12.5308H9.66531C10.395 12.5308 11.1158 12.6249 11.8141 12.8129L12.1141 12.8935L11.9529 13.4889ZM15.7133 16.1122L15.5163 15.8749C15.0821 15.3557 14.5807 14.899 14.0301 14.514L13.7749 14.335L14.1286 13.8291L14.3837 14.0081C14.9791 14.4245 15.5208 14.9214 15.9909 15.481L16.1878 15.7182L15.7133 16.1122ZM17.2936 20.4187L17.2667 20.1098C17.2085 19.4383 17.0608 18.7758 16.828 18.1446L16.7205 17.8536L17.3025 17.6387L17.41 17.9297C17.6606 18.6147 17.8218 19.3264 17.8845 20.0562L17.9114 20.365L17.2936 20.4187ZM17.9158 25.2357H17.298V22.5138H17.9158V25.2357Z" fill="#202020"/>
<path d="M13.0988 22.0079V21.8647C13.0988 21.22 13.1078 20.5754 13.0944 19.9352C13.0899 19.6398 13.0675 19.3398 13.0227 19.0488C12.9377 18.4893 12.7139 17.9968 12.2572 17.6342C11.9036 17.3522 11.4917 17.2045 11.053 17.1149C10.8516 17.0747 10.6501 17.0478 10.4442 17.012H9.05641C9.01166 17.0209 8.96687 17.0299 8.92661 17.0388C8.66695 17.0881 8.4028 17.1194 8.15213 17.191C7.43138 17.388 6.88524 17.7998 6.62109 18.5206C6.45993 18.9504 6.41517 19.4025 6.41068 19.8591C6.40623 20.5306 6.41068 21.2021 6.41068 21.8736V22.0034C5.9496 22.1109 5.8153 22.1915 5.54221 22.4869V22.8093C5.59594 22.8764 5.65862 22.8854 5.73918 22.863C5.95854 22.8003 6.17344 22.7466 6.41068 22.6839V22.8406C6.41068 25.1371 6.41068 27.4292 6.41068 29.7257C6.41068 29.963 6.42861 30.2047 6.45993 30.442C6.54947 31.1359 6.94343 31.5791 7.61942 31.7626C7.76266 31.8029 7.9059 31.8387 8.05364 31.8611C8.29537 31.9014 8.54159 31.9283 8.78781 31.9596H10.7217C10.7754 31.9506 10.8247 31.9417 10.8784 31.9327C11.1918 31.8835 11.5096 31.8521 11.8185 31.7805C12.5035 31.6194 12.9332 31.1985 13.0407 30.4867C13.0765 30.2405 13.0988 29.9943 13.0988 29.7481C13.1033 27.4471 13.1033 25.1506 13.1033 22.8495V22.6884C13.3406 22.751 13.5555 22.8048 13.7703 22.8675C13.8644 22.8943 13.9315 22.8764 13.9763 22.7869V22.5138C13.7659 22.2004 13.4525 22.0706 13.0988 22.0079ZM11.738 17.7103C11.7648 17.6924 11.832 17.7148 11.8678 17.7372C12.1274 17.8983 12.3423 18.1043 12.5035 18.3684C12.7452 18.7668 12.8302 19.21 12.8571 19.6666C12.8571 19.7248 12.8571 19.783 12.8571 19.8412C12.8571 19.8636 12.8526 19.8904 12.8437 19.9128C12.8124 20.0113 12.7542 20.0427 12.6646 19.9889C12.584 19.9397 12.5079 19.877 12.4497 19.8054C11.9797 19.2369 11.7648 18.5654 11.6887 17.8446C11.6887 17.7954 11.7111 17.7282 11.738 17.7103ZM9.75478 19.5234C9.85772 19.5279 9.97413 19.5279 10.0905 19.5413C10.677 19.5905 11.241 19.7158 11.7513 20.0203C12.2527 20.3247 12.5079 20.7679 12.4631 21.3633C12.4318 21.793 12.302 22.2049 12.1498 22.6033C12.0602 22.8406 11.9663 23.0823 11.8364 23.3017C11.7111 23.521 11.5096 23.6151 11.2455 23.5568C10.2472 23.3241 9.2489 23.3285 8.25062 23.5613C8.05813 23.6061 7.89696 23.5569 7.76711 23.4181C7.69549 23.342 7.62836 23.2524 7.58357 23.1539C7.35527 22.6302 7.15384 22.093 7.0643 21.52C6.96131 20.8753 7.20754 20.3426 7.7716 20.0114C8.38042 19.6577 9.05192 19.5413 9.75478 19.5234ZM6.71064 19.1563C6.82257 18.5609 7.1046 18.0685 7.63281 17.7417C7.67312 17.7148 7.74923 17.6924 7.7761 17.7103C7.80741 17.7327 7.82085 17.8043 7.81636 17.8536C7.79398 18.0371 7.7716 18.2207 7.72685 18.3997C7.59255 18.9369 7.39108 19.4428 7.00611 19.8546C6.93449 19.9308 6.84494 20.0471 6.74196 19.9889C6.67034 19.9486 6.6569 19.8099 6.63004 19.7517C6.6569 19.5234 6.67483 19.3398 6.71064 19.1563ZM6.67034 21.802C7.02849 22.0751 7.73579 24.8506 7.62387 25.5714C7.34633 25.5266 7.0643 25.4863 6.78676 25.4326C6.75989 25.4281 6.72853 25.3655 6.72853 25.3296C6.69721 24.4522 6.67034 23.5703 6.64796 22.6929C6.64796 22.6615 6.67483 22.6167 6.70615 22.6033C6.80019 22.563 6.85838 22.5048 6.85838 22.4019C6.85838 22.272 6.84494 22.1512 6.71958 22.0795C6.61215 22.0124 6.59423 21.9184 6.67034 21.802ZM7.61044 28.0559C7.57912 28.432 7.55674 28.7856 7.35078 29.0855C7.28365 29.184 7.22546 29.3139 7.08667 29.296C6.94343 29.2736 6.90313 29.1303 6.88969 29.0094C6.85388 28.6961 6.84045 28.3782 6.81807 28.0604C6.81807 28.0559 6.82701 28.047 6.82256 28.0514H7.61044V28.0559ZM6.80464 27.8768C6.78676 27.286 6.76883 26.7129 6.75094 26.1443H7.63281V27.8768H6.80464ZM6.62559 30.5942C6.76434 30.5986 6.84494 30.6837 6.90313 30.7911C7.03294 31.0374 7.22546 31.212 7.45825 31.3597C7.57018 31.4313 7.66417 31.5432 7.78504 31.6552C7.24784 31.6507 6.68827 31.1224 6.62559 30.5942ZM9.72342 31.5074C9.30264 31.4761 8.88181 31.4537 8.46548 31.4089C8.12081 31.3731 7.78055 31.2926 7.47614 31.118C7.1986 30.9568 7.14041 30.724 7.31946 30.4643C7.45825 30.2674 7.61044 30.0838 7.76266 29.9003C7.88798 29.7525 7.97752 29.7347 8.15662 29.8152C8.64902 30.0391 9.17279 30.1376 9.71003 30.1421C10.2875 30.151 10.8516 30.0525 11.3843 29.8063C11.5052 29.7526 11.6215 29.7436 11.7111 29.8511C11.8857 30.0615 12.0602 30.2719 12.2125 30.4912C12.3692 30.7151 12.3154 30.9479 12.0826 31.0866C11.9394 31.1717 11.7782 31.2388 11.617 31.2836C10.9948 31.4582 10.3591 31.4806 9.72342 31.5074ZM11.8812 27.8813V26.1443H12.7586C12.7407 26.7129 12.7228 27.2859 12.7004 27.8813H11.8812ZM12.6691 28.714C12.6601 28.8483 12.6333 28.9871 12.5885 29.1124C12.5616 29.184 12.49 29.278 12.4273 29.287C12.3647 29.296 12.2707 29.2243 12.2214 29.1661C11.9573 28.8483 11.9304 28.4633 11.8991 28.0649C12.1453 28.0559 12.3781 28.047 12.6109 28.038C12.6333 28.038 12.6601 28.0425 12.6691 28.0425C12.6736 28.2797 12.6825 28.4947 12.6691 28.714ZM11.729 31.6596C11.8454 31.5477 11.926 31.4403 12.0334 31.3731C12.2841 31.2209 12.4855 31.0284 12.6243 30.7733C12.6781 30.6748 12.7586 30.6076 12.884 30.5942C12.8302 31.1045 12.2886 31.6194 11.729 31.6596ZM12.7855 22.084C12.6019 22.2005 12.6109 22.4959 12.7989 22.6033C12.8302 22.6212 12.8571 22.6839 12.8571 22.7287C12.8347 23.539 12.8124 24.3448 12.7855 25.155C12.7765 25.4281 12.7765 25.4326 12.5079 25.4773C12.2975 25.5132 12.0871 25.5355 11.8767 25.5624C11.7872 24.77 12.499 22.0169 12.8437 21.802C12.9153 21.9408 12.8974 22.0124 12.7855 22.084Z" fill="#202020"/>
<path d="M12.884 30.5898C12.8347 31.1046 12.2886 31.6194 11.729 31.6597C11.8454 31.5478 11.926 31.4403 12.0334 31.3732C12.2841 31.221 12.4856 31.0285 12.6243 30.7733C12.6736 30.6704 12.7542 30.6032 12.884 30.5898Z" fill="#F4B81D"/>
<path d="M7.78485 31.6554C7.24765 31.6509 6.68808 31.1226 6.6254 30.5944C6.76419 30.5989 6.84475 30.6839 6.90294 30.7914C7.03279 31.0376 7.22527 31.2122 7.45806 31.3599C7.56999 31.4315 7.65949 31.539 7.78485 31.6554Z" fill="#F4B81D"/>
<path d="M12.8617 19.6622C12.8617 19.7203 12.8617 19.7785 12.8617 19.8368C12.8617 19.8591 12.8572 19.886 12.8483 19.9084C12.8169 20.0069 12.7587 20.0382 12.6692 19.9845C12.5886 19.9352 12.5125 19.8726 12.4543 19.8009C11.9843 19.2324 11.7694 18.5609 11.6933 17.8401C11.6888 17.7954 11.7067 17.7282 11.7381 17.7103C11.7649 17.6924 11.8321 17.7148 11.8679 17.7372C12.1275 17.8983 12.3424 18.1043 12.5036 18.3684C12.7453 18.7668 12.8303 19.2055 12.8617 19.6622Z" fill="#F4B81D"/>
<path d="M7.81172 17.8582C7.78934 18.0418 7.76696 18.2253 7.72217 18.4044C7.58787 18.9416 7.38644 19.4475 7.00143 19.8593C6.92981 19.9354 6.84026 20.0518 6.73732 19.9936C6.6657 19.9533 6.65227 19.8145 6.6254 19.7564C6.65671 19.5236 6.67464 19.34 6.71045 19.1564C6.82238 18.5611 7.10441 18.0687 7.63267 17.7418C7.67293 17.715 7.74904 17.6926 7.77591 17.7105C7.80277 17.7374 7.81621 17.809 7.81172 17.8582Z" fill="#F4B81D"/>
<path d="M51.2184 14.3573V20.0875H48.7201V14.3573C48.7201 12.5756 47.4174 11.1252 45.815 11.1252C44.2123 11.1252 42.9095 12.5756 42.9095 14.3573V20.1054H40.4115V14.3573C40.4115 14.2768 40.4205 14.2007 40.4205 14.1246V5.09063H42.896V9.54044C43.7376 8.96294 44.7403 8.62721 45.815 8.62721C48.7964 8.62721 51.2184 11.1968 51.2184 14.3573Z" fill="#202020"/>
<path d="M52.5699 6.54105C52.5699 5.74424 53.2191 5.09063 54.0158 5.09063C54.813 5.09063 55.4618 5.73975 55.4618 6.54105C55.4618 7.3424 54.813 7.98703 54.0158 7.98703C53.2191 7.98703 52.5699 7.33791 52.5699 6.54105ZM52.7716 20.1054V8.61827H55.2469V20.1054H52.7716Z" fill="#202020"/>
<path d="M62.8396 8.61823V11.1297H60.3685C59.9163 11.1297 59.5493 11.4967 59.5493 11.9489V20.1054H57.0735V11.2013C57.0735 9.77323 58.2287 8.61823 59.6569 8.61823H62.8396Z" fill="#202020"/>
<path d="M65.6642 15.2213C65.9642 16.6807 67.1373 17.7596 68.543 17.7596C69.5906 17.7596 70.517 17.1508 71.0366 16.233H73.6327C72.9343 18.5116 70.9154 20.1546 68.543 20.1546C65.5883 20.1546 63.1931 17.6118 63.1931 14.4737C63.1931 11.34 65.5926 8.79283 68.543 8.79283C70.9154 8.79283 72.9343 10.4402 73.6327 12.7188C73.8031 13.2695 73.8972 13.8604 73.8972 14.4737C73.8972 14.7289 73.879 14.9751 73.8476 15.2213H65.6642ZM71.0366 12.7233C70.5217 11.8011 69.5949 11.1923 68.543 11.1923C67.4907 11.1923 66.5643 11.8056 66.0494 12.7233H71.0366Z" fill="#202020"/>
<path d="M93.0889 8.61825V11.1297H90.416C90.0761 11.1297 89.7985 11.4072 89.7985 11.7474V20.1054H87.3228V11.1163C87.3228 9.73744 88.442 8.61825 89.821 8.61825H93.0889Z" fill="#F4B81D"/>
<path d="M93.8856 6.54107C93.8856 5.74426 94.5349 5.09064 95.3316 5.09064C96.1287 5.09064 96.7776 5.73976 96.7776 6.54107C96.7776 7.34242 96.1287 7.98705 95.3316 7.98705C94.5349 7.98705 93.8856 7.33792 93.8856 6.54107ZM94.0873 20.1054V8.61828H96.5627V20.1054H94.0873Z" fill="#F4B81D"/>
<path d="M108.435 5.09064V17.4284C108.435 18.7937 107.329 19.904 105.959 19.904V19.4966C105.172 19.9666 104.263 20.2397 103.305 20.2397C100.323 20.2397 97.8968 17.6656 97.8968 14.5051C97.8968 11.3445 100.319 8.77496 103.305 8.77496C104.267 8.77496 105.176 9.03907 105.959 9.51359V5.09513H108.435V5.09064ZM105.959 14.4917C105.959 14.4872 105.959 14.4827 105.959 14.4782C105.959 14.3977 105.955 14.3126 105.946 14.2186C105.942 14.1738 105.937 14.1291 105.932 14.0843C105.928 14.0574 105.928 14.0306 105.923 13.9993C105.883 13.7038 105.812 13.4218 105.709 13.1532C105.431 12.41 104.889 11.6714 103.941 11.3848C103.743 11.3177 103.533 11.2819 103.323 11.2685C103.318 11.2685 103.314 11.2685 103.305 11.2685C103.296 11.2685 103.291 11.2685 103.282 11.2685C103.246 11.2685 103.215 11.264 103.179 11.264C103.153 11.264 103.13 11.2685 103.103 11.2685C103.036 11.2685 102.969 11.273 102.902 11.2819C102.897 11.2819 102.888 11.2819 102.884 11.2819C102.512 11.3222 102.168 11.452 101.854 11.6534C101.85 11.6579 101.845 11.6579 101.841 11.6624C101.774 11.7072 101.707 11.7519 101.644 11.8012C101.595 11.8415 101.545 11.8818 101.496 11.9265C101.478 11.94 101.46 11.9534 101.447 11.9713C100.807 12.5622 100.395 13.4799 100.395 14.5051C100.395 14.5095 100.395 14.5096 100.395 14.514C100.399 16.2286 101.55 17.6253 103.005 17.7328C103.063 17.7373 103.117 17.7417 103.175 17.7417C103.193 17.7417 103.211 17.7373 103.229 17.7373C103.251 17.7373 103.273 17.7417 103.3 17.7373C103.354 17.7373 103.399 17.7283 103.452 17.7238C103.457 17.7238 103.461 17.7238 103.466 17.7238C103.999 17.6701 104.442 17.4507 104.791 17.1373C105.494 16.5509 105.955 15.5929 105.955 14.5051C105.959 14.5006 105.959 14.4961 105.959 14.4917Z" fill="#F4B81D"/>
<path d="M112.235 15.2214C112.535 16.6807 113.709 17.7596 115.114 17.7596C116.161 17.7596 117.088 17.1508 117.607 16.2331H120.204C119.506 18.5117 117.487 20.1546 115.114 20.1546C112.16 20.1546 109.764 17.6119 109.764 14.4737C109.764 11.3401 112.164 8.79285 115.114 8.79285C117.487 8.79285 119.506 10.4402 120.204 12.7189C120.374 13.2695 120.468 13.8604 120.468 14.4737C120.468 14.7289 120.45 14.9751 120.419 15.2214H112.235ZM117.607 12.7234C117.093 11.8011 116.166 11.1923 115.114 11.1923C114.062 11.1923 113.136 11.8056 112.621 12.7234H117.607Z" fill="#F4B81D"/>
<path d="M77.7383 14.55C78.0875 14.6887 79.2741 16.7749 79.3499 17.3792C79.1126 17.4016 78.88 17.4329 78.6426 17.4553C78.6202 17.4553 78.5799 17.415 78.571 17.3882C78.3519 16.6853 78.1324 15.9825 77.9222 15.2797C77.9129 15.2528 77.9264 15.2125 77.9489 15.1946C78.0158 15.1454 78.0472 15.0827 78.0252 14.9977C77.998 14.8992 77.9578 14.8007 77.8459 14.7693C77.7429 14.738 77.7073 14.6619 77.7383 14.55Z" fill="#F4B81D"/>
<path d="M78.7723 18.0417L79.4843 17.8447L79.8335 19.1117L79.1664 19.2952C79.0274 18.8699 78.9024 18.4536 78.7723 18.0417Z" fill="#F4B81D"/>
<path d="M77.3937 13.0771C77.3221 13.0592 77.2865 12.9517 77.2505 12.9069C77.2238 12.7145 77.1971 12.5622 77.1882 12.41C77.1479 11.8997 77.2598 11.4431 77.6179 11.0626C77.6446 11.0312 77.7027 10.9954 77.7251 11.0044C77.7565 11.0178 77.7789 11.0715 77.7878 11.1118C77.8103 11.264 77.8328 11.4207 77.837 11.5729C77.8506 12.0385 77.8014 12.4906 77.5776 12.9114C77.5374 12.9875 77.4925 13.1039 77.3937 13.0771Z" fill="#F4B81D"/>
<path d="M82.34 13.9814C82.3222 14.1963 82.2955 14.4111 82.2416 14.617C82.1925 14.823 82.0492 14.9439 81.8255 14.9528C80.966 14.9886 80.1646 15.2125 79.4077 15.6199C79.2603 15.696 79.1213 15.696 78.9827 15.6109C78.9111 15.5661 78.8348 15.5079 78.7767 15.4408C78.4767 15.0692 78.1948 14.6798 77.9978 14.2411C77.774 13.7397 77.8499 13.2562 78.2304 12.8622C78.6424 12.4414 79.1573 12.1997 79.7256 12.0295C79.8154 12.0117 79.9048 11.9848 80.0032 11.9669C80.4867 11.8729 80.9703 11.8505 81.4538 11.9848C81.9238 12.1191 82.2281 12.419 82.3268 12.9114C82.3938 13.2651 82.376 13.6232 82.34 13.9814Z" fill="#F4B81D"/>
<path d="M82.9136 16.9003L83.6255 16.7033C83.7239 17.1286 83.8311 17.5494 83.9341 17.9881L83.267 18.1717L82.9136 16.9003Z" fill="#F4B81D"/>
<path d="M81.969 11.649C81.463 11.2954 81.1362 10.8029 80.9171 10.2344C80.9078 10.1986 80.9036 10.1404 80.926 10.118C80.9438 10.0956 80.9976 10.0956 81.0332 10.1091C81.2795 10.1807 81.499 10.2971 81.6867 10.4761C81.969 10.7403 82.1347 11.0805 82.2601 11.4431L82.3004 11.5864C82.3046 11.6043 82.3046 11.6267 82.3093 11.6446C82.3046 11.7341 82.2643 11.7699 82.1838 11.743C82.1075 11.7296 82.0317 11.6938 81.969 11.649Z" fill="#F4B81D"/>
<path d="M82.739 13.4218C82.6178 13.5516 82.6941 13.7934 82.8687 13.8382C82.9001 13.8471 82.9357 13.8918 82.9446 13.9232C83.106 14.5813 83.2717 15.2394 83.4281 15.8974C83.4819 16.1212 83.4819 16.1257 83.276 16.2197C83.1149 16.2958 82.9539 16.3585 82.7835 16.4301C82.5373 15.8168 82.5017 13.4308 82.7297 13.1801C82.8107 13.2786 82.8149 13.3368 82.739 13.4218Z" fill="#F4B81D"/>
<path d="M85.2544 11.6088L86.7944 17.2001L84.2474 17.903L83.1282 13.8382C83.3342 13.8382 83.5219 13.8337 83.7101 13.8382C83.7906 13.8382 83.8397 13.8113 83.858 13.7262L83.7953 13.5069C83.5622 13.301 83.2803 13.2696 82.9803 13.292L82.9489 13.1801C82.8057 12.6608 82.6714 12.1371 82.5192 11.6222C82.4476 11.3805 82.3624 11.1522 82.2599 10.9239C82.067 10.4941 81.7763 10.1404 81.3284 9.94792C80.9838 9.80022 80.6168 9.77336 80.2405 9.79573C80.0705 9.80917 79.8959 9.83154 79.7302 9.84947L78.6068 10.1584C78.5754 10.1763 78.5351 10.1897 78.5038 10.2076C78.3067 10.3016 78.1008 10.3867 77.913 10.4986C77.3757 10.8164 77.0311 11.273 76.9684 11.9132C76.9413 12.2445 76.9815 12.5758 77.062 12.8981L77.1921 13.3681H77.1875C77.304 13.8023 77.4248 14.2321 77.5456 14.6619L77.577 14.7693C77.2278 14.9573 77.1337 15.0513 76.9862 15.3558L77.0578 15.6154C77.1159 15.6557 77.165 15.6512 77.2235 15.6154C77.3845 15.5169 77.5503 15.4229 77.7249 15.3199L77.7605 15.4498C78.1232 16.7614 78.4767 18.0731 78.8441 19.3848L76.3683 20.0652L74.8282 14.4739C74.788 14.3306 74.7524 14.1874 74.7299 14.0396C74.3629 12.1952 74.8867 10.3642 76.0191 9.08393C76.6683 8.3453 77.5231 7.78124 78.5262 7.50819C81.3957 6.72477 84.4174 8.56466 85.2544 11.6088Z" fill="white"/>
<path d="M85.2544 11.6088L86.7944 17.2001L84.2474 17.903L83.1282 13.8382C83.3342 13.8382 83.5219 13.8337 83.7101 13.8382C83.7906 13.8382 83.8397 13.8113 83.858 13.7262L83.7953 13.5069C83.5622 13.301 83.2803 13.2696 82.9803 13.292L82.9489 13.1801C82.8057 12.6608 82.6714 12.1371 82.5192 11.6222C82.4476 11.3805 82.3624 11.1522 82.2599 10.9239C82.067 10.4941 81.7763 10.1404 81.3284 9.94792C80.9838 9.80022 80.6168 9.77336 80.2405 9.79573C80.0705 9.80917 79.8959 9.83154 79.7302 9.84947L78.6068 10.1584C78.5754 10.1763 78.5351 10.1897 78.5038 10.2076C78.3067 10.3016 78.1008 10.3867 77.913 10.4986C77.3757 10.8164 77.0311 11.273 76.9684 11.9132C76.9413 12.2445 76.9815 12.5758 77.062 12.8981C77.0714 12.9473 77.0845 12.9921 77.0981 13.0368L77.1875 13.3681C77.304 13.8023 77.4248 14.2321 77.5456 14.6619L77.577 14.7693C77.2278 14.9573 77.1337 15.0513 76.9862 15.3558L77.0578 15.6154C77.1159 15.6557 77.165 15.6512 77.2235 15.6154C77.3845 15.5169 77.5503 15.4229 77.7249 15.3199L77.7605 15.4498C78.1232 16.7614 78.4767 18.0731 78.8441 19.3848L76.3683 20.0652L74.8282 14.4739C74.788 14.3306 74.7524 14.1874 74.7299 14.0396C74.3629 12.1952 74.8867 10.3642 76.0191 9.08393C76.6683 8.3453 77.5231 7.78124 78.5262 7.50819C81.3957 6.72477 84.4174 8.56466 85.2544 11.6088Z" fill="#202020"/>
<path d="M76.3681 20.1413H86.7943V19.3803" fill="#F4B81D"/>
<path d="M43.3524 24.7566L42.2065 26.5741L42.1528 26.6591V28.2394H41.5529V26.6591L41.4992 26.5741L40.3532 24.7566H41.0605L41.5529 25.5355L41.8529 26.01L42.1528 25.5355L42.6451 24.7566H43.3524Z" fill="#F5B81E"/>
<path d="M44.5479 26.48C44.5479 25.5265 45.2777 24.7476 46.1774 24.7476C47.0729 24.7476 47.8069 25.5265 47.8069 26.48C47.8069 27.4336 47.0771 28.2125 46.1774 28.2125C45.2777 28.2125 44.5479 27.4381 44.5479 26.48ZM45.1255 26.48C45.1255 27.1157 45.5955 27.635 46.1774 27.635C46.755 27.635 47.2292 27.1157 47.2292 26.48C47.2292 25.8399 46.7593 25.3251 46.1774 25.3251C45.5955 25.3251 45.1255 25.8443 45.1255 26.48Z" fill="#F5B81E"/>
<path d="M52.0461 26.9052C52.0461 27.6349 51.4867 28.2258 50.8018 28.2258C50.117 28.2258 49.5571 27.6304 49.5571 26.9052V24.7519H50.1348V26.9052C50.1348 27.3171 50.4348 27.6528 50.806 27.6528C51.1777 27.6528 51.4778 27.3171 51.4778 26.9052V24.7519H52.055V26.9052H52.0461Z" fill="#F5B81E"/>
<path d="M54.5265 28.2126H53.9264V24.7566H54.5265H55.614C56.1424 24.7566 56.5722 25.2087 56.5722 25.7683C56.5722 26.3234 56.1424 26.7755 55.6186 26.78L56.4827 28.217H55.7843L54.9202 26.78H54.5265V28.2126ZM54.5265 25.3341V26.2025H55.614C55.8246 26.2025 55.9945 26.0056 55.9945 25.7683C55.9945 25.531 55.8246 25.3341 55.614 25.3341H54.5265Z" fill="#F5B81E"/>
<path d="M62.3696 25.3564H61.2415V24.7566H64.111V25.3564H62.9697V28.2394H62.3696V25.3564Z" fill="#F5B81E"/>
<path d="M66.3982 28.2126H65.7985V24.7566H66.3982H67.4861C68.0145 24.7566 68.4443 25.2087 68.4443 25.7683C68.4443 26.3234 68.0145 26.7755 67.4907 26.78L68.3548 28.217H67.6564L66.7923 26.78H66.3982V28.2126ZM66.3982 25.3341V26.2025H67.4861C67.6967 26.2025 67.8666 26.0056 67.8666 25.7683C67.8666 25.531 67.6967 25.3341 67.4861 25.3341H66.3982Z" fill="#F5B81E"/>
<path d="M70.6242 28.217H69.9843L71.2959 24.7566H71.9003L73.2077 28.217H72.5673L72.2317 27.2769H70.9514L70.6242 28.217ZM71.1752 26.6815H72.0257L71.6002 25.4952L71.1752 26.6815Z" fill="#F5B81E"/>
<path d="M75.4415 28.217L74.2773 24.7566H74.8863L75.7457 27.4784L76.6052 24.7566H77.2142L76.05 28.217H75.4415Z" fill="#F5B81E"/>
<path d="M81.2167 28.2171H78.9066V24.7566H81.2167V25.258H79.5067V26.1892H81.0239V26.789H79.5067V27.7202H81.2167V28.2171Z" fill="#F5B81E"/>
<path d="M85.3348 28.2171H83.0251V24.7566H83.6248V27.7157H85.3348V28.2171Z" fill="#F5B81E"/>
<path d="M90.7385 28.2127H90.1384V24.7566H90.7385H91.8264C92.3544 24.7566 92.7842 25.2088 92.7842 25.7683C92.7842 26.328 92.3544 26.7801 91.8264 26.7801H90.7385V28.2127ZM90.7385 25.3341V26.2026H91.8264C92.0366 26.2026 92.207 26.0056 92.207 25.7683C92.207 25.5311 92.0366 25.3341 91.8264 25.3341H90.7385Z" fill="#F5B81E"/>
<path d="M94.5302 28.2171H93.8898L95.2015 24.7566H95.8058L97.1132 28.2171H96.4728L96.1372 27.277H94.8569L94.5302 28.2171ZM95.0853 26.6816H95.9359L95.5104 25.4953L95.0853 26.6816Z" fill="#F5B81E"/>
<path d="M99.4098 28.2127H98.8101V24.7566H99.4098H100.498C101.026 24.7566 101.456 25.2088 101.456 25.7683C101.456 26.3235 101.026 26.7756 100.502 26.7801L101.366 28.2171H100.668L99.8039 26.7801H99.4098V28.2127ZM99.4098 25.3341V26.2026H100.498C100.708 26.2026 100.878 26.0056 100.878 25.7683C100.878 25.5311 100.708 25.3341 100.498 25.3341H99.4098Z" fill="#F5B81E"/>
<path d="M104.128 25.3565H103V24.7566H105.87V25.3565H104.728V28.2395H104.128V25.3565Z" fill="#F5B81E"/>
<path d="M108.162 28.2171H107.562V24.7566H108.215L109.616 27.1741V24.7566H110.216V28.2171H109.612L108.166 25.7191V28.2171H108.162Z" fill="#F5B81E"/>
<path d="M114.451 28.2171H112.141V24.7566H114.451V25.258H112.741V26.1892H114.259V26.789H112.741V27.7202H114.451V28.2171Z" fill="#F5B81E"/>
<path d="M116.86 28.2127H116.26V24.7566H116.86H117.948C118.476 24.7566 118.906 25.2088 118.906 25.7683C118.906 26.3235 118.476 26.7756 117.952 26.7801L118.816 28.2171H118.118L117.254 26.7801H116.86V28.2127ZM116.86 25.3341V26.2026H117.948C118.158 26.2026 118.328 26.0056 118.328 25.7683C118.328 25.5311 118.158 25.3341 117.948 25.3341H116.86Z" fill="#F5B81E"/>
</g>
<defs>
<clipPath id="clip0_9254_715">
<rect width="120.484" height="32" fill="white"/>
</clipPath>
</defs>
</svg>
